<?xml version="1.0"?>
<svg xmlns="http://www.w3.org/2000/svg" viewBox="0 0 24 24">
    <path style="text-indent:0;text-align:start;line-height:normal;text-transform:none;block-progression:tb;-inkscape-font-specification:Sans" d="M 8 2 L 8 3 L 8 7 L 10 7 L 10 4 L 16 4 L 16 8 L 20 8 L 20 19 L 16 19 L 16 21 L 21 21 L 22 21 L 22 20 L 22 7.5 L 22 7.09375 L 21.71875 6.78125 L 17.21875 2.28125 L 16.90625 2 L 16.5 2 L 9 2 L 8 2 z M 8 9 C 6.343 9 5 10.343 5 12 C 5 13.657 6.343 15 8 15 C 9.657 15 11 13.657 11 12 C 11 10.343 9.657 9 8 9 z M 8 17 C 3.442 17 2 20.34375 2 20.34375 L 2 22 L 14 22 L 14 20.34375 C 14 20.34375 12.558 17 8 17 z" overflow="visible" font-family="Sans"/>
</svg>
